<?xml version="1.0" encoding="UTF-8" standalone="no"?>
<!DOCTYPE svg PUBLIC "-//W3C//DTD SVG 1.1//EN" "http://www.w3.org/Graphics/SVG/1.1/DTD/svg11.dtd">
<svg width="100%" height="100%" viewBox="0 0 500 300" version="1.1" xmlns="http://www.w3.org/2000/svg" xmlns:xlink="http://www.w3.org/1999/xlink" xml:space="preserve" style="fill-rule:evenodd;clip-rule:evenodd;stroke-linejoin:round;stroke-miterlimit:1.41421;">
    <g transform="matrix(1,0,0,1,-3.64777,-0.999125)">
        <g transform="matrix(0.988058,0,0,0.988058,-114.972,-69.9812)">
            <path d="M164.072,172.752C169.088,175.326 167.377,212.778 163.475,211.605C161.878,212.296 157.196,208.114 152.714,201.445C147.982,188.687 153.943,179.938 164.072,172.752" style="fill:rgb(56,191,228);"/>
        </g>
        <g transform="matrix(0.988058,0,0,0.988058,-114.972,-69.9812)">
            <path d="M217.039,242.426C215.544,251.287 204.334,258.176 196.663,248.777C192.429,245.778 190.577,242.779 183.961,239.78C181.756,235.281 182.197,230.782 188.46,230.253C192.017,229.771 193.371,225.619 192.694,218.08C193.435,196.826 193.245,176.449 189.499,167.801C184.119,158.01 189.342,154.041 193.488,151.924C204.724,146.174 211.139,147.461 213.834,157.225C215.115,161.868 214.569,160.965 212.361,164.826C206.302,175.419 205.324,186.957 213.335,204.584C216.951,211.112 219.244,232.194 217.039,242.426" style="fill:rgb(56,191,228);"/>
        </g>
        <g transform="matrix(0.988058,0,0,0.988058,-114.972,-69.9812)">
            <path d="M270.494,283.972C274.219,288.702 270.562,289.74 260.173,287.412C249.941,282.914 232.564,276.563 229.477,267.565C225.772,262.008 228.153,260.685 230.271,260.42C234.44,258.503 237.47,251.194 237.553,241.381C237.742,219.277 228.751,180.998 234.769,171.242C239.445,164.097 237.504,152.188 232.917,146.896C226.163,143.103 228.623,139.31 233.181,135.517C242.615,125.413 249.417,126.127 252.499,142.133C259.759,166.135 268.138,188.741 260.967,230.782C254.823,249.844 261.759,267.037 270.494,283.972" style="fill:rgb(56,191,228);"/>
        </g>
        <g transform="matrix(0.988058,0,0,0.988058,-114.972,-69.9812)">
            <path d="M270.178,115.023C286.813,100.996 300.947,95.183 308.96,109.483C328.449,133.085 316.281,210.14 320.512,225.079C329.142,255.551 322.46,290.865 318.573,297.434C324.626,301.063 330.587,305.491 331.028,308.886C314.063,309.795 304.868,317.069 309.421,332.478C299.879,325.747 290.621,317.233 281.08,304.421C275.966,285.612 285.526,296.454 285.875,287.694C277.597,238.448 295.584,195.665 283.567,148.265C281.148,125.108 267.661,126.628 270.178,115.023" style="fill:rgb(56,191,228);"/>
        </g>
        <g transform="matrix(0.988058,0,0,0.988058,-114.972,-69.9812)">
            <path d="M329.274,91.939C367.617,90.053 412.946,76.179 413.301,130.721C410.223,180.121 411.3,221.673 424.843,248.451C436.262,268.766 437.125,289.08 431.307,309.394C434.478,311.141 436.472,313.329 436.847,318.166L422.073,323.706C432.95,332.888 434.066,350.696 425.766,355.563C426.292,359.497 364.734,358.779 360.161,356.085C357.409,352.257 349.509,351.37 347.198,348.13C352.038,343.016 355.113,341.727 359.953,335.142C365.741,324.85 359.565,319.934 345.245,313.615C347.198,306.884 355.919,309.864 361.257,307.989C358.154,294.304 363.747,271.227 359.284,254.915C354.821,238.602 338.664,223.486 350.973,169.041C369.734,137.117 347.3,102.012 329.274,91.939" style="fill:rgb(56,191,228);"/>
        </g>
        <g transform="matrix(0.988058,0,0,0.988058,-114.972,-69.9812)">
            <path d="M439.617,109.483C483.086,129.306 514.993,156.735 511.64,207.361C504.289,233.203 508.219,257.083 529.184,277.999C531.257,284.133 524.568,286.309 522.259,290.465C527.887,298.339 531.181,305.967 529.646,313.087C524.975,326.158 481.335,343.893 464.086,324.63C461.5,320.2 461.687,314.154 463.625,307.085C456.884,311.143 449.967,313.091 442.849,312.626C448.697,299.698 458.238,290.927 460.393,273.844C463.237,250.711 438.694,213.257 456.699,187.047C461.482,157.45 452.107,132.911 439.617,109.483" style="fill:rgb(56,191,228);"/>
        </g>
        <g transform="matrix(0.988058,0,0,0.988058,-114.972,-69.9812)">
            <path d="M521.269,164.652C548.278,183.878 569.594,189.323 580.286,199.008C606.939,223.148 597.232,268.258 554.073,303.803C547.371,303.186 535.907,288.547 535.29,274.173L540.581,270.735C546.582,260.79 548.785,249.73 541.374,235.55C537.468,228.336 534.435,221.513 542.697,210.418C546.244,191.675 529.486,184.744 521.269,164.652" style="fill:rgb(56,191,228);"/>
        </g>
    </g>
</svg>
