<?xml version="1.0" encoding="UTF-8" standalone="no"?>
<!DOCTYPE svg PUBLIC "-//W3C//DTD SVG 1.1//EN" "http://www.w3.org/Graphics/SVG/1.1/DTD/svg11.dtd">
<svg width="100%" height="100%" viewBox="0 0 256 256" version="1.1" xmlns="http://www.w3.org/2000/svg" xmlns:xlink="http://www.w3.org/1999/xlink" xml:space="preserve" style="fill-rule:evenodd;clip-rule:evenodd;stroke-linejoin:round;stroke-miterlimit:1.41421;">
    <g transform="matrix(1.11095,0,0,1.11095,-12.8504,-19.6181)">
        <g transform="matrix(0.362158,0,0,0.362158,-8.41388,18.5952)">
            <text x="67.903px" y="529.401px" style="font-family:'ArialMT', 'Arial', sans-serif;font-size:48.319px;fill:white;">B</text>
            <text x="98.081px" y="529.401px" style="font-family:'Garamond-Bold', 'Garamond', serif;font-weight:700;font-size:28.699px;fill:white;">USINESS</text>
            <text x="226.918px" y="529.401px" style="font-family:'Garamond', serif;font-size:48.319px;fill:white;">D</text>
            <text x="264.172px" y="529.401px" style="font-family:'Garamond-Bold', 'Garamond', serif;font-weight:700;font-size:28.699px;fill:white;">EVELOP</text>
            <text x="382.556px" y="529.401px" style="font-family:'Garamond-Bold', 'Garamond', serif;font-weight:700;font-size:28.699px;fill:white;">M</text>
            <text x="408.958px" y="529.401px" style="font-family:'Garamond-Bold', 'Garamond', serif;font-weight:700;font-size:28.699px;fill:white;">ETNT</text>
            <text x="500.142px" y="529.401px" style="font-family:'Garamond', serif;font-size:48.319px;fill:white;">S</text>
            <text x="523.287px" y="529.401px" style="font-family:'Garamond-Bold', 'Garamond', serif;font-weight:700;font-size:28.699px;fill:white;">OLUTIONS</text>
        </g>
        <g transform="matrix(0.434191,0,0,0.362158,-20.4162,19.4016)">
            <text x="292.553px" y="467.491px" style="font-family:'ArialMT', 'Arial', sans-serif;font-size:76.827px;fill:white;">O</text>
        </g>
        <g transform="matrix(0.362158,0,0,0.362158,-8.41388,18.5952)">
            <path d="M164.072,172.752C169.088,175.326 167.377,212.778 163.475,211.605C161.878,212.296 157.196,208.114 152.714,201.445C147.982,188.687 153.943,179.938 164.072,172.752" style="fill:rgb(56,191,228);"/>
        </g>
        <g transform="matrix(0.362158,0,0,0.362158,-8.41388,18.5952)">
            <path d="M217.039,242.426C215.544,251.287 204.334,258.176 196.663,248.777C192.429,245.778 190.577,242.779 183.961,239.78C181.756,235.281 182.197,230.782 188.46,230.253C192.017,229.771 193.371,225.619 192.694,218.08C193.435,196.826 193.245,176.449 189.499,167.801C184.119,158.01 189.342,154.041 193.488,151.924C204.724,146.174 211.139,147.461 213.834,157.225C215.115,161.868 214.569,160.965 212.361,164.826C206.302,175.419 205.324,186.957 213.335,204.584C216.951,211.112 219.244,232.194 217.039,242.426" style="fill:rgb(56,191,228);"/>
        </g>
        <g transform="matrix(0.362158,0,0,0.362158,-8.41388,18.5952)">
            <path d="M270.494,283.972C274.219,288.702 270.562,289.74 260.173,287.412C249.941,282.914 232.564,276.563 229.477,267.565C225.772,262.008 228.153,260.685 230.271,260.42C234.44,258.503 237.47,251.194 237.553,241.381C237.742,219.277 228.751,180.998 234.769,171.242C239.445,164.097 237.504,152.188 232.917,146.896C226.163,143.103 228.623,139.31 233.181,135.517C242.615,125.413 249.417,126.127 252.499,142.133C259.759,166.135 268.138,188.741 260.967,230.782C254.823,249.844 261.759,267.037 270.494,283.972" style="fill:rgb(56,191,228);"/>
        </g>
        <g transform="matrix(0.362158,0,0,0.362158,-8.41388,18.5952)">
            <path d="M270.178,115.023C286.813,100.996 300.947,95.183 308.96,109.483C328.449,133.085 316.281,210.14 320.512,225.079C329.142,255.551 322.46,290.865 318.573,297.434C324.626,301.063 330.587,305.491 331.028,308.886C314.063,309.795 304.868,317.069 309.421,332.478C299.879,325.747 290.621,317.233 281.08,304.421C275.966,285.612 285.526,296.454 285.875,287.694C277.597,238.448 295.584,195.665 283.567,148.265C281.148,125.108 267.661,126.628 270.178,115.023" style="fill:rgb(56,191,228);"/>
        </g>
        <g transform="matrix(0.362158,0,0,0.362158,-8.41388,18.5952)">
            <path d="M329.274,91.939C367.617,90.053 412.946,76.179 413.301,130.721C410.223,180.121 411.3,221.673 424.843,248.451C436.262,268.766 437.125,289.08 431.307,309.394C434.478,311.141 436.472,313.329 436.847,318.166L422.073,323.706C432.95,332.888 434.066,350.696 425.766,355.563C426.292,359.497 364.734,358.779 360.161,356.085C357.409,352.257 349.509,351.37 347.198,348.13C352.038,343.016 355.113,341.727 359.953,335.142C365.741,324.85 359.565,319.934 345.245,313.615C347.198,306.884 355.919,309.864 361.257,307.989C358.154,294.304 363.747,271.227 359.284,254.915C354.821,238.602 338.664,223.486 350.973,169.041C369.734,137.117 347.3,102.012 329.274,91.939" style="fill:rgb(56,191,228);"/>
        </g>
        <g transform="matrix(0.362158,0,0,0.362158,-8.41388,18.5952)">
            <path d="M439.617,109.483C483.086,129.306 514.993,156.735 511.64,207.361C504.289,233.203 508.219,257.083 529.184,277.999C531.257,284.133 524.568,286.309 522.259,290.465C527.887,298.339 531.181,305.967 529.646,313.087C524.975,326.158 481.335,343.893 464.086,324.63C461.5,320.2 461.687,314.154 463.625,307.085C456.884,311.143 449.967,313.091 442.849,312.626C448.697,299.698 458.238,290.927 460.393,273.844C463.237,250.711 438.694,213.257 456.699,187.047C461.482,157.45 452.107,132.911 439.617,109.483" style="fill:rgb(56,191,228);"/>
        </g>
        <g transform="matrix(0.362158,0,0,0.362158,-8.41388,18.5952)">
            <path d="M521.269,164.652C548.278,183.878 569.594,189.323 580.286,199.008C606.939,223.148 597.232,268.258 554.073,303.803C547.371,303.186 535.907,288.547 535.29,274.173L540.581,270.735C546.582,260.79 548.785,249.73 541.374,235.55C537.468,228.336 534.435,221.513 542.697,210.418C546.244,191.675 529.486,184.744 521.269,164.652" style="fill:rgb(56,191,228);"/>
        </g>
        <g transform="matrix(0.362158,0,0,0.362158,-8.41388,18.5952)">
            <rect x="68.504" y="480.175" width="609.143" height="3.61" style="fill:white;"/>
        </g>
        <g transform="matrix(0.362158,0,0,0.362158,-8.41388,18.5952)">
            <path d="M195.776,446.144C196.739,446.144 196.168,452.389 196.168,453.141C196.168,453.983 196.412,454.661 195.296,455.014C194.203,455.359 192.652,457.352 191.442,458.441C188.166,461.388 183.879,463.913 178.587,466.019C173.295,468.126 167.712,469.169 161.816,469.169C152.296,469.169 144.025,467.2 137.004,463.283C129.983,459.366 124.587,453.913 120.858,446.905C117.108,439.917 115.233,432.634 115.233,425.114C115.233,417.575 117.066,410.508 120.733,403.914C124.4,397.319 129.608,392.181 136.358,388.481C143.108,384.8 150.942,382.949 159.858,382.949C165.546,382.949 170.816,383.661 175.629,385.055C180.461,386.455 184.096,389.631 187.56,390.072C188.365,390.174 188.986,387.742 189.562,387.979C190.747,388.468 191.156,390.09 191.272,391.658C191.555,395.5 192.038,397.788 192.449,402.164C192.477,402.459 192.708,402.856 192.708,403.251C192.708,404.53 192.442,404.357 190.775,404.357C189.549,404.357 186.613,402.015 186.05,401.109C183.388,396.828 180.983,395.701 178.504,393.658C174.132,390.055 168.025,388.264 160.192,388.264C150.108,388.264 142.275,391.729 136.65,398.638C131.046,405.567 128.233,414.504 128.233,425.449C128.233,437.378 131.275,446.787 137.337,453.716C143.4,460.626 151.587,464.09 161.9,464.09C164.545,464.09 168.712,463.244 174.4,461.551C179.484,460.038 184.5,457.266 189.466,453.223C191.064,451.921 195.698,446.144 195.776,446.144" style="fill:white;fill-rule:nonzero;"/>
        </g>
        <g transform="matrix(0.362158,0,0,0.362158,-8.41388,18.5952)">
            <path d="M481.524,392.428C485.941,392.428 490.021,394.017 493.75,397.214C497.479,400.411 499.335,404.572 499.335,409.698C499.335,412.466 498.487,414.895 496.806,417.02C495.11,419.127 492.79,420.752 489.813,421.913L489.109,422.431L489.813,422.806C495.542,423.842 500.407,426.592 504.439,431.057C508.456,435.522 510.472,440.737 510.472,446.702C510.472,453.078 508.021,458.342 503.128,462.489C499.569,465.505 495.012,467.342 489.18,468.166C486.979,468.478 484.428,468.277 481.903,468.277C467.228,468.277 458.471,468.332 456.214,468.211L454.084,468.097C454.405,467.876 454.142,467.342 454.724,466.823C456.292,465.424 459.175,463.385 459.649,462.222C460.014,461.324 460.353,460.4 460.353,459.239L460.353,401.554C460.353,400.179 460.129,399.089 459.696,398.268C459.385,397.697 459.022,397.455 458.773,397.197C457.726,396.107 456.161,395.403 454.372,394.866L453.968,393.017C453.801,392.255 455.328,392.428 456.208,392.428L481.524,392.428ZM468.13,415.502C468.13,418.109 468.802,419.735 470.13,420.342C471.474,420.949 473.587,421.252 476.515,421.252C480.596,421.252 484.004,420.11 486.709,417.824C489.429,415.538 490.789,412.484 490.789,408.644C490.789,404.983 489.461,402.143 486.789,400.089C484.116,398.053 480.692,397.036 476.515,397.036C473.283,397.036 471.074,397.393 469.89,398.125C468.722,398.857 468.13,400.268 468.13,402.322L468.13,415.502ZM468.514,458.328C468.514,460.382 468.706,461.811 469.074,462.579C469.458,463.365 470.243,463.865 471.474,464.097C472.691,464.329 474.915,464.436 478.132,464.436C485.061,464.436 490.597,462.704 494.71,459.257C498.823,455.792 500.871,451.006 500.871,444.88C500.871,439.183 498.663,434.593 494.262,431.093C489.845,427.61 484.372,425.86 477.844,425.86C474.931,425.86 472.659,426.289 470.994,427.146C469.346,427.986 468.514,429.2 468.514,430.754L468.514,458.328Z" style="fill:white;fill-rule:nonzero;"/>
        </g>
        <g transform="matrix(0.240958,0,0,0.256512,-17.8329,67.8175)">
            <path d="M481.524,392.428C485.941,392.428 490.021,394.017 493.75,397.214C497.479,400.411 499.335,404.572 499.335,409.698C499.335,412.466 498.487,414.895 496.806,417.02C495.11,419.127 492.79,420.752 489.813,421.913L489.109,422.431L489.813,422.806C495.542,423.842 500.407,426.592 504.439,431.057C508.456,435.522 510.472,440.737 510.472,446.702C510.472,453.078 508.021,458.342 503.128,462.489C499.569,465.505 495.012,467.342 489.18,468.166C486.979,468.478 484.428,468.277 481.903,468.277C467.228,468.277 458.471,468.332 456.214,468.211L454.084,468.097C454.405,467.876 454.142,467.342 454.724,466.823C456.292,465.424 459.175,463.385 459.649,462.222C460.014,461.324 460.353,460.4 460.353,459.239L460.353,401.554C460.353,400.179 460.129,399.089 459.696,398.268C459.385,397.697 459.022,397.455 458.773,397.197C457.726,396.107 456.161,395.403 454.372,394.866L453.968,393.017C453.801,392.255 455.328,392.428 456.208,392.428L481.524,392.428ZM468.13,415.502C468.13,418.109 468.802,419.735 470.13,420.342C471.474,420.949 473.587,421.252 476.515,421.252C480.596,421.252 484.004,420.11 486.709,417.824C489.429,415.538 490.789,412.484 490.789,408.644C490.789,404.983 489.461,402.143 486.789,400.089C484.116,398.053 480.692,397.036 476.515,397.036C473.283,397.036 471.074,397.393 469.89,398.125C468.722,398.857 468.13,400.268 468.13,402.322L468.13,415.502ZM468.514,458.328C468.514,460.382 468.706,461.811 469.074,462.579C469.458,463.365 470.243,463.865 471.474,464.097C472.691,464.329 474.915,464.436 478.132,464.436C485.061,464.436 490.597,462.704 494.71,459.257C498.823,455.792 500.871,451.006 500.871,444.88C500.871,439.183 498.663,434.593 494.262,431.093C489.845,427.61 484.372,425.86 477.844,425.86C474.931,425.86 472.659,426.289 470.994,427.146C469.346,427.986 468.514,429.2 468.514,430.754L468.514,458.328Z" style="fill:white;fill-rule:nonzero;"/>
        </g>
        <g transform="matrix(0.362158,0,0,0.362158,-8.41388,18.5952)">
            <path d="M540.266,392.32C545.871,392.32 552.184,393.82 559.187,396.838C566.188,399.857 571.87,404.375 576.194,410.376C580.537,416.376 582.699,423.377 582.699,431.361C582.699,442.237 579.102,451.184 571.927,458.203C564.754,465.222 555.437,468.722 543.997,468.722L512.201,468.508C511.341,468.502 510.064,468.603 510.02,467.883L509.988,467.37C512.169,467.272 514.14,465.709 516.62,462.74C517.105,462.159 517.385,461.525 517.385,460.721L517.385,401.41C517.385,399.839 517.05,398.76 516.582,398.017C515.174,395.782 511.985,394.5 509.101,393.871L509.074,392.825C509.053,391.988 510.625,392.32 512.239,392.32L540.266,392.32ZM526.798,457.846C526.798,459.864 527.792,461.418 529.782,462.489C531.772,463.579 535.445,464.115 540.782,464.115C546.56,464.115 550.941,463.418 553.906,462.025C558.938,459.632 563.032,455.828 566.169,450.595C569.307,445.38 570.876,440.094 570.876,434.754C570.876,430.128 570.455,425.771 569.613,421.681C568.771,417.591 567.24,413.912 565.041,410.626C562.841,407.339 559.531,404.232 555.093,401.303C550.654,398.392 544.762,396.928 537.396,396.928C530.337,396.928 526.798,398.356 526.798,401.214L526.798,457.846Z" style="fill:white;fill-rule:nonzero;"/>
        </g>
        <g transform="matrix(0.362158,0,0,0.362158,-8.41388,18.5952)">
            <path d="M594.048,406.197C594.048,407.929 594.693,409.697 595.964,411.483C597.253,413.269 600.515,415.93 605.769,419.43C615.877,426.146 622.591,431.575 625.929,435.683C629.248,439.808 630.917,444.201 630.917,448.863C630.917,455.471 628.205,460.614 622.761,464.293C617.319,467.954 611.363,469.794 604.896,469.794C600.306,469.794 595.585,468.897 590.767,467.097C585.932,465.29 585.292,464.327 585.153,462.35L584.126,447.728C584.074,446.975 584.718,447.184 585.893,447.184C586.168,447.184 586.563,447.05 586.663,447.274C588.12,450.534 588.368,455.808 593.688,460.989C596.281,463.514 600.212,464.543 605.048,464.543C609.922,464.543 613.943,463.24 617.129,460.65C620.334,458.06 621.927,454.685 621.927,450.524C621.927,448.006 620.846,445.344 618.703,442.54C616.541,439.719 610.908,435.254 601.786,429.128C597.993,426.628 595.015,424.485 592.834,422.717C590.653,420.966 588.833,418.877 587.372,416.466C585.912,414.055 585.172,411.322 585.172,408.251C585.172,403.268 587.581,399.124 592.379,395.838C597.177,392.57 602.696,390.927 608.974,390.927C612.52,390.927 616.333,391.749 620.391,393.409C623.296,394.598 625.415,390.846 626.242,392.328C626.57,392.916 626.472,398.617 626.479,399.249L626.581,408.327L624.735,408.513C622.377,401.365 616.405,396.177 608.708,396.177C604.688,396.177 601.236,397.213 598.353,399.303C595.489,401.392 594.048,403.679 594.048,406.197" style="fill:white;fill-rule:nonzero;"/>
        </g>
        <g transform="matrix(0.362158,0,0,0.362158,-8.41388,18.5952)">
            <path d="M221.937,444.334L241.2,444.334L232.667,425.094C232.146,423.89 231.745,423.289 231.491,423.289C231.17,423.289 230.702,424.117 230.06,425.789L221.937,444.334ZM242.408,447.03L220.73,447.03L214.467,460.947C214.253,461.441 214.159,461.869 214.159,462.23C214.159,463.339 215.808,466.29 216.534,466.73C217.073,467.057 216.953,467.584 217.234,467.93L202.463,467.843L202.993,467.014L204.979,466.106C206.841,465.254 208.543,463.353 209.305,462.164C210.067,460.974 212.046,456.774 215.229,449.553L224.711,428.424C227.038,423.369 228.532,420.01 229.19,418.354C229.556,417.435 229.334,417.686 229.744,417.111C230.802,415.632 225.82,412.293 224.9,411.009C224.816,410.892 225.399,410.119 226.434,409.888C227.917,409.556 230.108,409.776 230.715,409.889C232.029,410.134 233.122,410.451 233.924,411.574C234.74,412.697 235.824,414.81 237.174,417.926L248.02,442.465C251.965,451.412 254.465,456.935 255.508,459.048C256.551,461.174 257.407,462.538 258.076,463.153C258.758,463.768 259.559,464.216 260.496,464.504C261.41,464.784 264.986,467.879 263.923,467.881L254.027,467.906C249.151,467.918 243.243,467.923 243.245,467.848L243.265,467.123C245.082,466.414 246.762,465.406 248.193,463.862C248.612,463.41 248.809,462.832 248.809,462.164C248.809,461.428 248.06,459.422 246.575,456.132C245.191,453.065 243.791,450.082 242.408,447.03" style="fill:white;"/>
        </g>
    </g>
</svg>
